<svg xmlns="http://www.w3.org/2000/svg" viewBox="0 0 800 480">
  <rect width="800" height="480" fill="#F6F8F9"/>
  <g transform="translate(214 54)">
    <rect width="372" height="338" rx="18" fill="#FFFFFF" stroke="#4A7FB5" stroke-width="3"/>
    <rect x="34" y="32" width="304" height="72" rx="8" fill="#EEF4F8" stroke="#4A7FB5" stroke-width="2"/>
    <text x="318" y="79" text-anchor="end" font-family="Georgia, serif" font-size="36" font-weight="700" fill="#2F3A44">163</text>
    <g transform="translate(34 132)">
      <rect width="62" height="48" rx="7" fill="#FFF8EC" stroke="#D4A843" stroke-width="2"/>
      <rect x="81" width="62" height="48" rx="7" fill="#FFF8EC" stroke="#D4A843" stroke-width="2"/>
      <rect x="162" width="62" height="48" rx="7" fill="#EEF4F8" stroke="#4A7FB5" stroke-width="2"/>
      <rect x="243" width="62" height="48" rx="7" fill="#EEF4F8" stroke="#4A7FB5" stroke-width="2"/>
      <rect y="66" width="62" height="48" rx="7" fill="#FFFFFF" stroke="#D6DEE5" stroke-width="2"/>
      <rect x="81" y="66" width="62" height="48" rx="7" fill="#FFFFFF" stroke="#D6DEE5" stroke-width="2"/>
      <rect x="162" y="66" width="62" height="48" rx="7" fill="#FFFFFF" stroke="#D6DEE5" stroke-width="2"/>
      <rect x="243" y="66" width="62" height="48" rx="7" fill="#EEF4F8" stroke="#4A7FB5" stroke-width="2"/>
      <rect y="132" width="62" height="48" rx="7" fill="#FFFFFF" stroke="#D6DEE5" stroke-width="2"/>
      <rect x="81" y="132" width="62" height="48" rx="7" fill="#FFFFFF" stroke="#D6DEE5" stroke-width="2"/>
      <rect x="162" y="132" width="62" height="48" rx="7" fill="#FFFFFF" stroke="#D6DEE5" stroke-width="2"/>
      <rect x="243" y="132" width="62" height="48" rx="7" fill="#EEF4F8" stroke="#4A7FB5" stroke-width="2"/>
      <text x="31" y="32" text-anchor="middle" font-family="Arial, sans-serif" font-size="18" font-weight="700" fill="#2F3A44">C</text>
      <text x="112" y="32" text-anchor="middle" font-family="Arial, sans-serif" font-size="18" font-weight="700" fill="#2F3A44">%</text>
      <text x="193" y="32" text-anchor="middle" font-family="Arial, sans-serif" font-size="20" font-weight="700" fill="#4A7FB5">/</text>
      <text x="274" y="32" text-anchor="middle" font-family="Arial, sans-serif" font-size="20" font-weight="700" fill="#4A7FB5">x</text>
      <text x="31" y="98" text-anchor="middle" font-family="Arial, sans-serif" font-size="20" font-weight="700" fill="#2F3A44">7</text>
      <text x="112" y="98" text-anchor="middle" font-family="Arial, sans-serif" font-size="20" font-weight="700" fill="#2F3A44">8</text>
      <text x="193" y="98" text-anchor="middle" font-family="Arial, sans-serif" font-size="20" font-weight="700" fill="#2F3A44">9</text>
      <text x="274" y="98" text-anchor="middle" font-family="Arial, sans-serif" font-size="22" font-weight="700" fill="#4A7FB5">+</text>
      <text x="31" y="164" text-anchor="middle" font-family="Arial, sans-serif" font-size="20" font-weight="700" fill="#2F3A44">4</text>
      <text x="112" y="164" text-anchor="middle" font-family="Arial, sans-serif" font-size="20" font-weight="700" fill="#2F3A44">5</text>
      <text x="193" y="164" text-anchor="middle" font-family="Arial, sans-serif" font-size="20" font-weight="700" fill="#2F3A44">6</text>
      <text x="274" y="164" text-anchor="middle" font-family="Arial, sans-serif" font-size="24" font-weight="700" fill="#4A7FB5">=</text>
    </g>
  </g>
  <circle cx="156" cy="132" r="34" fill="#D4A843" opacity="0.18"/>
  <text x="156" y="145" text-anchor="middle" font-family="Georgia, serif" font-size="42" font-weight="700" fill="#D4A843">+</text>
  <circle cx="636" cy="330" r="42" fill="#5B8C5A" opacity="0.15"/>
  <text x="636" y="346" text-anchor="middle" font-family="Georgia, serif" font-size="46" font-weight="700" fill="#5B8C5A">%</text>
  <text x="400" y="430" text-anchor="middle" font-family="Georgia, serif" font-size="26" font-weight="700" fill="#4A7FB5">Calculator</text>
</svg>
