<svg xmlns="http://www.w3.org/2000/svg" viewBox="0 0 800 480">
  <rect width="800" height="480" fill="#F6F8F9"/>
  <g transform="translate(128 84)">
    <rect width="300" height="280" rx="18" fill="#FFFFFF" stroke="#4A7FB5" stroke-width="3"/>
    <rect y="0" width="300" height="70" rx="18" fill="#4A7FB5"/>
    <rect y="44" width="300" height="36" fill="#4A7FB5"/>
    <circle cx="76" cy="34" r="12" fill="#F6F8F9"/>
    <circle cx="224" cy="34" r="12" fill="#F6F8F9"/>
    <text x="150" y="48" text-anchor="middle" font-family="Georgia, serif" font-size="28" font-weight="700" fill="#FFFFFF">DOB</text>
    <g transform="translate(38 106)" fill="#EEF4F8" stroke="#D4A843" stroke-width="2">
      <rect width="46" height="38" rx="6"/>
      <rect x="63" width="46" height="38" rx="6"/>
      <rect x="126" width="46" height="38" rx="6"/>
      <rect x="189" width="46" height="38" rx="6"/>
      <rect y="58" width="46" height="38" rx="6"/>
      <rect x="63" y="58" width="46" height="38" rx="6"/>
      <rect x="126" y="58" width="46" height="38" rx="6"/>
      <rect x="189" y="58" width="46" height="38" rx="6"/>
      <rect y="116" width="46" height="38" rx="6"/>
      <rect x="63" y="116" width="46" height="38" rx="6"/>
      <rect x="126" y="116" width="46" height="38" rx="6"/>
      <rect x="189" y="116" width="46" height="38" rx="6"/>
    </g>
    <text x="150" y="292" text-anchor="middle" font-family="Georgia, serif" font-size="18" font-weight="700" fill="#4A7FB5">Years - Months - Days</text>
  </g>
  <g transform="translate(476 128)">
    <circle cx="92" cy="92" r="92" fill="#FFF8EC" stroke="#C67B5C" stroke-width="4"/>
    <text x="92" y="78" text-anchor="middle" font-family="Georgia, serif" font-size="34" font-weight="700" fill="#2F3A44">26</text>
    <text x="92" y="112" text-anchor="middle" font-family="Georgia, serif" font-size="22" font-weight="700" fill="#5B8C5A">years</text>
    <path d="M92 0 A92 92 0 0 1 184 92" fill="none" stroke="#D4A843" stroke-width="12" stroke-linecap="round"/>
  </g>
  <text x="400" y="430" text-anchor="middle" font-family="Georgia, serif" font-size="26" font-weight="700" fill="#4A7FB5">Age Calculator</text>
</svg>
