<svg xmlns="http://www.w3.org/2000/svg" viewBox="0 0 800 480">
  <rect width="800" height="480" fill="#FFF8EC"/>
  <rect x="135" y="76" width="270" height="315" rx="16" fill="#FFFFFF" stroke="#4A7FB5" stroke-width="3"/>
  <rect x="175" y="118" width="190" height="48" rx="8" fill="#EEF4F8" stroke="#4A7FB5" stroke-width="2"/>
  <text x="270" y="151" text-anchor="middle" font-family="Arial, sans-serif" font-size="24" font-weight="700" fill="#2F3A44">$71.50</text>
  <g transform="translate(175 200)">
    <rect width="54" height="44" rx="7" fill="#F6F8F9" stroke="#D4A843" stroke-width="2"/>
    <rect x="68" width="54" height="44" rx="7" fill="#F6F8F9" stroke="#D4A843" stroke-width="2"/>
    <rect x="136" width="54" height="44" rx="7" fill="#F6F8F9" stroke="#D4A843" stroke-width="2"/>
    <rect y="62" width="54" height="44" rx="7" fill="#EEF4F8" stroke="#4A7FB5" stroke-width="2"/>
    <rect x="68" y="62" width="54" height="44" rx="7" fill="#EEF4F8" stroke="#4A7FB5" stroke-width="2"/>
    <rect x="136" y="62" width="54" height="44" rx="7" fill="#EEF4F8" stroke="#4A7FB5" stroke-width="2"/>
    <text x="27" y="29" text-anchor="middle" font-family="Arial, sans-serif" font-size="18" font-weight="700" fill="#2F3A44">%</text>
    <text x="95" y="29" text-anchor="middle" font-family="Arial, sans-serif" font-size="18" font-weight="700" fill="#2F3A44">$</text>
    <text x="163" y="29" text-anchor="middle" font-family="Arial, sans-serif" font-size="18" font-weight="700" fill="#2F3A44">=</text>
    <text x="27" y="91" text-anchor="middle" font-family="Arial, sans-serif" font-size="18" font-weight="700" fill="#2F3A44">30</text>
    <text x="95" y="91" text-anchor="middle" font-family="Arial, sans-serif" font-size="18" font-weight="700" fill="#2F3A44">100</text>
    <text x="163" y="91" text-anchor="middle" font-family="Arial, sans-serif" font-size="18" font-weight="700" fill="#2F3A44">70</text>
  </g>
  <g transform="translate(430 108) rotate(-10)">
    <path d="M0 62 L142 0 L240 96 L98 158 Z" fill="#C67B5C" stroke="#9E5F45" stroke-width="3"/>
    <circle cx="51" cy="65" r="15" fill="#FFF8EC" stroke="#9E5F45" stroke-width="3"/>
    <text x="135" y="92" text-anchor="middle" font-family="Georgia, serif" font-size="48" font-weight="700" fill="#FFFFFF">SALE</text>
  </g>
  <g transform="translate(470 270)">
    <rect width="170" height="90" rx="8" fill="#FFFFFF" stroke="#D4A843" stroke-width="2"/>
    <line x1="24" y1="28" x2="146" y2="28" stroke="#4A7FB5" stroke-width="3" opacity="0.45"/>
    <line x1="24" y1="52" x2="118" y2="52" stroke="#4A7FB5" stroke-width="3" opacity="0.35"/>
    <line x1="24" y1="72" x2="138" y2="72" stroke="#5B8C5A" stroke-width="4" opacity="0.6"/>
  </g>
  <text x="400" y="430" text-anchor="middle" font-family="Georgia, serif" font-size="26" font-weight="700" fill="#4A7FB5">Discount Calculator</text>
</svg>
